<svg xmlns="http://www.w3.org/2000/svg" viewBox="0 0 45 45" stroke="#a0a0a0" stroke-width="1.5" stroke-linecap="round" stroke-linejoin="round" fill="#265136"><g><path d="m9 36c3.39-0.97 10.11 0.43 13.5-2 3.39 2.43 10.11 1.03 13.5 2 0 0 1.65 0.54 3 2-0.68 0.97-1.74 1.99-3 2-3.39 0.97-10.11-1.43-13.5-2-3.39 0.57-10.11 2.97-13.5 2-1.26-0.01-2.32-1.03-3-2 1.35-1.46 3-2 3-2z"></path><path d="m15 32c2.5 2.5 12.5 2.5 15 0 0.5-1.5 0-2 0-2 0-2.5-2.5-4-2.5-4-0-0-3-1.5-5-1.5s-5 1.5-5 1.5c0 0-2.5 1.5-2.5 4 0 0-0.5 0.5 0 2z"></path><path d="m25 28-2.5-3.5-2.5 3.5"></path><path d="m22.5 15.5s0-1.5 0-3c0-1.5 1.5-2.5 2-2.5s1 0.5 1 1.5c0 1 0 2 0 2"></path><circle r="1.5" cy="10" cx="22.5"></circle></g></svg>